<svg xmlns="http://www.w3.org/2000/svg" width="120" height="60" viewBox="-0.082 -42.217 120 60"><path d="M16.57 4.513a21.17 21.17 0 0 0 12.994 4.452c5.354 0 10.235-1.988 13.96-5.25.045-.04.023-.066-.022-.04-1.672 1.116-6.436 3.553-13.938 3.553-6.52 0-10.64-1.455-12.967-2.753-.045-.022-.06.01-.028.04m14.433 1.083c5.215 0 10.945-1.422 14.372-4.235.938-.767 1.83-1.787 2.63-3.158a20.32 20.32 0 0 0 1.278-2.648c.016-.045-.01-.067-.045-.016C46.05.24 36.82 3.156 27.3 3.156c-6.736 0-13.983-2.154-16.82-6.267-.028-.038-.056-.022-.04.022C13.074 2.53 21.093 5.598 31 5.598m-5.698-9.32c-10.846 0-15.96-5.05-16.887-8.498-.01-.05-.044-.04-.044.006 0 1.16.116 2.658.316 3.652.095.484.5 1.243 1.066 1.85 2.63 2.732 9.176 6.57 20.516 6.57 15.45 0 18.982-5.146 19.703-6.84.516-1.2.783-3.398.783-5.235a22.91 22.91 0 0 0-.028-1.148c0-.057-.033-.06-.044-.006-.772 4.14-13.972 9.647-25.378 9.647m-14.9-17.58a21.7 21.7 0 0 0-1.515 4.39c-.1.46-.052.683.1 1.027 1.3 2.758 7.875 7.17 23.212 7.17 9.357 0 16.626-2.3 17.803-6.494.217-.772.228-1.588-.05-2.686-.3-1.228-.894-2.66-1.388-3.665-.016-.033-.045-.028-.04.01.183 5.502-15.16 9.048-22.902 9.048-8.386 0-15.38-3.34-15.38-7.56 0-.405.084-.8.2-1.233.01-.04-.022-.045-.04-.01M43.56-28.06a.85.85 0 0 1 .133.49c0 2.354-7.203 6.517-18.67 6.517-8.425 0-10.002-3.125-10.002-5.113 0-.7.272-1.437.873-2.176.033-.044.005-.06-.033-.028a21.15 21.15 0 0 0-2.982 3.098c-.422.533-.683 1.005-.683 1.288 0 4.12 10.328 7.106 19.986 7.106 10.3 0 14.882-3.36 14.882-6.3 0-1.055-.4-1.67-1.46-2.865-.682-.777-1.327-1.4-2-2.032-.033-.027-.056-.005-.033.028M40.416-30.4c-3.176-1.904-6.864-2.987-10.84-2.987-4.004 0-7.802 1.12-11 3.075-.956.588-1.494 1.06-1.494 1.666 0 1.787 4.176 3.708 11.583 3.708 7.33 0 13.017-2.104 13.017-4.13 0-.483-.423-.822-1.278-1.332" fill="lab(100% 0 0 / 0.7)"/></svg>